{
  "accessors": [
    {
      "bufferView": 2,
      "componentType": 5126,
      "count": 5470,
      "max": [
        0.7143863439559937,
        0.7095814347267151,
        0.7025573253631592
      ],
      "min": [
        -0.07646273076534271,
        -0.7096207737922668,
        -0.6934371590614319
      ],
      "type": "VEC3"
    },
    {
      "bufferView": 2,
      "byteOffset": 65640,
      "componentType": 5126,
      "count": 5470,
      "max": [
        1.0,
        0.999998152256012,
        0.9999111294746399
      ],
      "min": [
        -1.0,
        -0.999993085861206,
        -0.9999110698699951
      ],
      "type": "VEC3"
    },
    {
      "bufferView": 3,
      "componentType": 5126,
      "count": 5470,
      "max": [
        0.9999576210975647,
        1.0,
        0.9999943971633911,
        1.0
      ],
      "min": [
        -0.9999856948852539,
        -1.0,
        -0.9999943971633911,
        1.0
      ],
      "type": "VEC4"
    },
    {
      "bufferView": 1,
      "componentType": 5126,
      "count": 5470,
      "max": [
        0.9947999119758606,
        0.9968159794807434
      ],
      "min": [
        0.003015410155057907,
        0.0027416497468948364
      ],
      "type": "VEC2"
    },
    {
      "bufferView": 1,
      "byteOffset": 43760,
      "componentType": 5126,
      "count": 5470,
      "max": [
        0.9947999119758606,
        0.9968159794807434
      ],
      "min": [
        0.003015410155057907,
        0.0027416497468948364
      ],
      "type": "VEC2"
    },
    {
      "bufferView": 0,
      "componentType": 5125,
      "count": 20400,
      "type": "SCALAR"
    }
  ],
  "asset": {
    "extras": {
      "author": "Przemysław Machnik (https://sketchfab.com/p_machnik)",
      "license": "CC-BY-4.0 (http://creativecommons.org/licenses/by/4.0/)",
      "source": "https://sketchfab.com/3d-models/old-dusty-table-557943b905cf49f8bd4353a69d45b9a0",
      "title": "Old dusty table"
    },
    "generator": "Sketchfab-14.32.1",
    "version": "2.0"
  },
  "bufferViews": [
    {
      "buffer": 0,
      "byteLength": 81600,
      "name": "floatBufferViews",
      "target": 34963
    },
    {
      "buffer": 0,
      "byteLength": 87520,
      "byteOffset": 81600,
      "byteStride": 8,
      "name": "floatBufferViews",
      "target": 34962
    },
    {
      "buffer": 0,
      "byteLength": 131280,
      "byteOffset": 169120,
      "byteStride": 12,
      "name": "floatBufferViews",
      "target": 34962
    },
    {
      "buffer": 0,
      "byteLength": 87520,
      "byteOffset": 300400,
      "byteStride": 16,
      "name": "floatBufferViews",
      "target": 34962
    }
  ],
  "buffers": [
    {
      "byteLength": 387920,
      "uri": "scene.bin"
    }
  ],
  "images": [
    {
      "uri": "textures/Wood_textures.SP_baseColor.png"
    },
    {
      "uri": "textures/Wood_textures.SP_metallicRoughness.png"
    },
    {
      "uri": "textures/Wood_textures.SP_normal.png"
    }
  ],
  "materials": [
    {
      "doubleSided": true,
      "name": "Wood_textures.SP",
      "normalTexture": {
        "index": 2
      },
      "pbrMetallicRoughness": {
        "baseColorTexture": {
          "index": 0
        },
        "metallicFactor": 0.0,
        "metallicRoughnessTexture": {
          "index": 1
        }
      }
    }
  ],
  "meshes": [
    {
      "name": "Table_Wood_textures.SP_0",
      "primitives": [
        {
          "attributes": {
            "NORMAL": 1,
            "POSITION": 0,
            "TANGENT": 2,
            "TEXCOORD_0": 3,
            "TEXCOORD_1": 4
          },
          "indices": 5,
          "material": 0,
          "mode": 4
        }
      ]
    }
  ],
  "nodes": [
    {
      "children": [
        1
      ],
      "matrix": [
        1.0,
        0.0,
        0.0,
        0.0,
        0.0,
        2.220446049250313e-16,
        -1.0,
        0.0,
        0.0,
        1.0,
        2.220446049250313e-16,
        0.0,
        0.0,
        0.0,
        0.0,
        1.0
      ],
      "name": "Sketchfab_model"
    },
    {
      "children": [
        2
      ],
      "matrix": [
        0.009999999776482582,
        0.0,
        0.0,
        0.0,
        0.0,
        0.0,
        0.009999999776482582,
        0.0,
        0.0,
        -0.009999999776482582,
        0.0,
        0.0,
        0.0,
        0.0,
        0.0,
        1.0
      ],
      "name": "e99578fa05a941c7b3d7b35f123a941f.fbx"
    },
    {
      "children": [
        3
      ],
      "name": "RootNode"
    },
    {
      "children": [
        4
      ],
      "matrix": [
        -1.629206791697868e-05,
        -99.99999999999866,
        5.024295775183474e-13,
        0.0,
        99.99999999999838,
        -1.629206791697868e-05,
        -7.5497915474897986e-06,
        0.0,
        7.54979154748978e-06,
        -7.275875896838658e-13,
        99.99999999999972,
        0.0,
        0.0,
        71.43380737304688,
        0.0,
        1.0
      ],
      "name": "Table"
    },
    {
      "mesh": 0,
      "name": "Table_Wood_textures.SP_0"
    }
  ],
  "samplers": [
    {
      "magFilter": 9729,
      "minFilter": 9987,
      "wrapS": 10497,
      "wrapT": 10497
    }
  ],
  "scene": 0,
  "scenes": [
    {
      "name": "Sketchfab_Scene",
      "nodes": [
        0
      ]
    }
  ],
  "textures": [
    {
      "sampler": 0,
      "source": 0
    },
    {
      "sampler": 0,
      "source": 1
    },
    {
      "sampler": 0,
      "source": 2
    }
  ]
}
